<?xml version="1.0" encoding="UTF-8"?>
<!DOCTYPE svg PUBLIC "-//W3C//DTD SVG 1.1//EN" "http://www.w3.org/Graphics/SVG/1.1/DTD/svg11.dtd">
<!-- Creator: CorelDRAW X7 -->
<svg xmlns="http://www.w3.org/2000/svg" xml:space="preserve" width="8.3918in" height="1.35812in" version="1.1" style="shape-rendering:geometricPrecision; text-rendering:geometricPrecision; image-rendering:optimizeQuality; fill-rule:evenodd; clip-rule:evenodd"
viewBox="0 0 8392 1358"
 xmlns:xlink="http://www.w3.org/1999/xlink">
 <defs>
  <style type="text/css">
   <![CDATA[
    .fil4 {fill:none}
    .fil3 {fill:#FEFEFE}
    .fil2 {fill:#154C79}
    .fil5 {fill:#E06431}
    .fil7 {fill:#FEFEFE;fill-rule:nonzero}
    .fil1 {fill:#154C79;fill-rule:nonzero}
    .fil0 {fill:#E06431;fill-rule:nonzero}
    .fil6 {fill:white;fill-rule:nonzero}
   ]]>
  </style>
      <clipPath id="id0">
       <path d="M3809 586c-4,-124 34,-516 129,-586 97,66 134,447 133,607 -1,1 -1,1 -2,2 -6,5 -18,12 -30,12l0 0 -1 0c-3,0 -6,0 -9,-1l-169 -49c-2,0 -4,0 -6,-1 -21,-4 -41,2 -44,15 -1,0 -1,0 -1,0l0 -28c0,9 0,19 0,29l0 0z"/>
      </clipPath>
      <clipPath id="id1">
       <path d="M4071 606c1,11 1,23 1,33 1,163 -44,486 -66,486l-125 0c-29,-10 -75,-385 -72,-568l0 31c0,-15 26,-24 50,-17l170 49c16,4 32,-4 40,-11 1,-1 2,-2 2,-3z"/>
      </clipPath>
      <clipPath id="id2">
       <path d="M3812 571c-63,-27 -127,-54 -191,-81l-6 -3 -1 1c-6,-3 -19,0 -37,9 -28,11 -82,-10 -120,-25 -31,-14 -41,-51 -26,-85 2,-4 9,-7 16,-6 68,9 125,36 170,84 4,2 9,4 13,6 61,25 122,51 182,77l0 23z"/>
      </clipPath>
      <clipPath id="id3">
       <path d="M4055 632c64,25 129,50 193,76l7 2 -1 1c7,2 14,14 20,33 13,27 66,50 104,65 32,13 65,-7 78,-42 1,-4 -1,-12 -7,-15 -55,-42 -115,-62 -180,-59 -5,-2 -9,-4 -14,-5 -61,-24 -123,-48 -184,-73l-16 17z"/>
      </clipPath>
 </defs>
 <g id="Layer_x0020_1">
  <metadata id="CorelCorpID_0Corel-Layer"/>
  <g id="_2182661803888">
   <path class="fil0" d="M308 632l-184 143 93 -46 -31 155 -186 0 124 -621 186 0 -44 223 303 -223 218 0 -336 258 243 363 -218 0 -168 -252zm701 76l-35 176 -186 0 107 -537c5,-25 17,-45 36,-61 19,-15 41,-23 66,-23l430 0c17,0 32,4 46,10 14,7 25,16 34,28 10,11 16,25 20,39 4,15 5,30 1,46l-99 498 -186 0 35 -176 -269 0zm298 -145l26 -130c1,-7 0,-13 -4,-18 -4,-5 -10,-7 -16,-7l-353 0 103 31 -25 124 269 0zm981 -300l-305 373 -46 248 -202 0 41 -217 110 0 -104 -31 -197 -373 197 0 113 228 176 -228 217 0zm180 445l-36 176 -186 0 107 -537c5,-25 17,-45 36,-61 19,-15 41,-23 66,-23l430 0c17,0 32,4 46,10 14,7 25,16 35,28 9,11 15,25 20,39 4,15 4,30 0,46l-99 498 -186 0 35 -176 -268 0zm298 -145l25 -130c1,-7 0,-13 -4,-18 -4,-5 -10,-7 -16,-7l-353 0 103 31 -25 124 270 0zm563 69l-184 143 93 -46 -31 155 -186 0 124 -621 187 0 -45 223 303 -223 218 0 -335 258 242 363 -218 0 -168 -252z"/>
   <path class="fil1" d="M4281 408l104 31 -55 276c-1,6 0,12 4,17 4,5 10,7 16,7l243 0c11,0 18,-5 21,-16l9 -46 186 0 -25 124c-5,24 -17,45 -35,60 -19,15 -41,23 -66,23l-462 0c-14,0 -28,-3 -40,-9 -13,-6 -23,-14 -31,-24 -8,-11 -14,-22 -18,-35 -3,-13 -4,-27 -1,-41l86 -428c5,-25 17,-45 36,-61 19,-15 41,-23 65,-23l452 0c16,0 31,4 45,10 13,7 25,16 35,28 9,11 16,25 20,39 4,15 4,30 1,46l-17 84 -186 0 8 -37c1,-7 -1,-13 -5,-18 -4,-5 -9,-7 -16,-7l-374 0zm1349 -145l-305 373 -46 248 -202 0 41 -217 110 0 -104 -31 -197 -373 197 0 113 228 176 -228 217 0zm633 621l-644 0 124 -621 556 0c17,0 32,4 46,10 14,7 25,16 34,28 9,11 16,25 20,39 4,15 5,30 1,46l-19 101c-5,19 -14,34 -29,47 -15,13 -33,19 -53,19l13 0c13,0 25,3 37,9 11,5 20,13 28,22 7,9 12,19 16,31 3,12 3,24 1,37l-30 149c-5,24 -17,45 -36,60 -19,15 -41,23 -65,23zm-77 -150c4,-3 6,-7 7,-11l16 -83c2,-6 0,-12 -4,-17 -3,-5 -9,-8 -15,-8l-321 0 -25 124 329 0c5,0 9,-1 13,-5zm-9 -243c10,0 17,-6 20,-17l8 -41c1,-7 0,-13 -4,-18 -5,-5 -10,-7 -16,-7l-384 0 103 31 -10 52 283 0zm438 -83l104 31 -14 67 332 0 -27 135 -332 0 -14 74c-2,6 0,12 4,17 4,5 9,7 16,7l367 0 -28 145 -453 0c-17,0 -32,-3 -46,-10 -14,-7 -26,-16 -35,-28 -9,-11 -16,-25 -20,-40 -4,-15 -4,-30 -1,-46l99 -497 580 0 -29 145 -503 0zm991 300l-227 0 -36 176 -186 0 124 -621 598 0c16,0 31,4 45,10 14,7 26,16 35,28 9,11 16,25 20,39 4,15 5,30 2,46l-48 239c-5,24 -17,44 -36,60 -19,16 -40,23 -65,23l-40 0 79 176 -187 0 -78 -176zm136 -145c5,0 9,-2 13,-5 4,-2 6,-6 8,-11l22 -114c1,-7 0,-13 -4,-18 -4,-5 -9,-7 -16,-7l-436 0 103 31 -25 124 335 0z"/>
   <g>
    <g>
     <path class="fil2" d="M3809 586c-4,-124 34,-516 129,-586 97,66 134,447 133,607 -1,1 -1,1 -2,2 -6,5 -18,12 -30,12l0 0 -1 0c-3,0 -6,0 -9,-1l-169 -49c-2,0 -4,0 -6,-1 -21,-4 -41,2 -44,15 -1,0 -1,0 -1,0l0 -28c0,9 0,19 0,29l0 0z"/>
     <g style="clip-path:url(#id0)">
      <g>
       <g>
        <polygon id="1" class="fil3" points="3812,426 4028,513 4072,500 4075,512 4028,527 3811,440 "/>
        <polygon class="fil3" points="3807,471 4088,581 4132,568 4134,580 4087,596 3806,485 "/>
        <path class="fil3" d="M3923 318c14,0 25,12 24,25 -1,14 -13,26 -27,25 -14,0 -25,-11 -24,-25 0,-2 1,-4 1,-5l-109 -45 1 -14 115 47c5,-5 12,-8 19,-8zm-1 15c6,0 10,5 10,10 -1,6 -5,10 -11,10 -6,0 -10,-5 -9,-10 0,-6 5,-10 10,-10z"/>
        <path class="fil3" d="M3986 431c-14,0 -25,-11 -24,-25 1,-14 13,-25 27,-25 14,0 25,12 24,26 0,1 0,3 -1,4l109 45 0 14 -115 -47c-5,5 -12,9 -20,8zm1 -15c-6,0 -10,-5 -9,-10 0,-6 5,-10 10,-10 6,0 10,5 10,10 -1,6 -5,10 -11,10z"/>
        <path class="fil3" d="M3899 441c-14,0 -24,-12 -23,-26 1,-14 13,-25 27,-25 14,1 24,12 23,26 0,2 0,3 0,5l177 77 -1 14 -183 -79c-5,5 -12,8 -20,8zm1 -15c-5,0 -9,-5 -9,-10 0,-6 5,-10 11,-10 5,0 9,4 9,10 0,5 -5,10 -11,10z"/>
       </g>
      </g>
     </g>
     <path class="fil4" d="M3809 586c-4,-124 34,-516 129,-586 97,66 134,447 133,607 -1,1 -1,1 -2,2 -6,5 -18,12 -30,12l0 0 -1 0c-3,0 -6,0 -9,-1l-169 -49c-2,0 -4,0 -6,-1 -21,-4 -41,2 -44,15 -1,0 -1,0 -1,0l0 -28c0,9 0,19 0,29l0 0z"/>
     <path class="fil5" d="M4071 606c1,11 1,23 1,33 1,163 -44,486 -66,486l-125 0c-29,-10 -75,-385 -72,-568l0 31c0,-15 26,-24 50,-17l170 49c16,4 32,-4 40,-11 1,-1 2,-2 2,-3z"/>
     <g style="clip-path:url(#id1)">
      <g>
       <path id="1" class="fil3" d="M3904 732c-14,0 -24,-12 -24,-26 1,-14 13,-25 27,-24 14,0 25,11 24,25 0,2 0,3 -1,5l155 60 -1 14 -160 -62c-5,5 -12,8 -20,8zm1 -15c-5,0 -10,-5 -9,-10 0,-6 5,-10 10,-10 6,0 10,4 10,10 0,6 -5,10 -11,10z"/>
       <path class="fil3" d="M3991 697c-14,0 -25,-12 -24,-26 1,-13 13,-25 27,-24 14,0 25,11 24,25 0,2 0,4 -1,5l109 44 0 15 -115 -47c-5,5 -12,8 -20,8zm1 -15c-6,0 -10,-5 -9,-10 0,-6 5,-10 10,-10 6,0 10,5 10,10 -1,6 -5,10 -11,10z"/>
       <path class="fil3" d="M3940 788c-14,0 -24,-12 -23,-26 1,-14 13,-25 27,-24 14,0 24,11 23,25 0,2 0,4 0,5l109 44 -1 15 -115 -47c-5,5 -12,8 -20,8zm1 -15c-5,0 -9,-5 -9,-10 0,-6 5,-10 11,-10 5,0 9,5 9,10 0,6 -5,10 -11,10z"/>
       <path class="fil3" d="M3938 625c14,1 24,12 23,26 -1,14 -13,25 -27,25 -14,0 -24,-12 -23,-26 0,-1 0,-3 0,-4l-109 -45 1 -14 115 47c5,-6 12,-9 20,-9zm-1 16c5,0 9,4 9,10 0,5 -5,10 -11,10 -5,0 -9,-5 -9,-10 0,-6 5,-10 11,-10z"/>
      </g>
     </g>
     <path class="fil4" d="M4071 606c1,11 1,23 1,33 1,163 -44,486 -66,486l-125 0c-29,-10 -75,-385 -72,-568l0 31c0,-15 26,-24 50,-17l170 49c16,4 32,-4 40,-11 1,-1 2,-2 2,-3z"/>
    </g>
    <g>
     <path class="fil2" d="M3812 571c-63,-27 -127,-54 -191,-81l-6 -3 -1 1c-6,-3 -19,0 -37,9 -28,11 -82,-10 -120,-25 -31,-14 -41,-51 -26,-85 2,-4 9,-7 16,-6 68,9 125,36 170,84 4,2 9,4 13,6 61,25 122,51 182,77l0 23z"/>
     <g style="clip-path:url(#id2)">
      <g>
       <g>
        <g>
         <g>
          <path id="1" class="fil6" d="M4079 715l0 0 1 0 1 1 2 1 1 2 1 1 1 1 1 1 1 1 1 2 1 1 1 1 1 2 0 1 1 2 0 1 1 2 0 1 1 2 0 2 0 1 0 2 0 1 0 2 0 2 -1 1 0 2 0 1 -1 2 0 2 -1 1 -1 2 -1 1 -14 -8 0 -1 1 -1 0 -1 0 0 1 -1 0 -1 0 -1 0 -1 0 0 0 -1 0 -1 0 -1 0 -1 0 0 0 -1 0 -1 0 -1 -1 0 0 -1 0 -1 -1 -1 0 0 -1 -1 0 -1 -1 0 0 -1 -1 -1 0 0 -1 -1 0 0 -1 -1 -1 0 0 0 9 -14zm-46 11l0 0 1 -1 1 -2 1 -1 1 -1 1 -1 1 -2 1 -1 2 -1 1 -1 1 0 2 -1 1 -1 2 -1 1 0 2 -1 1 0 2 0 1 -1 2 0 2 0 1 0 2 0 1 0 2 0 2 0 1 1 2 0 1 1 2 0 2 1 1 1 2 1 -9 14 -1 -1 0 0 -1 0 -1 -1 -1 0 -1 0 0 0 -1 0 -1 0 -1 0 -1 0 0 0 -1 0 -1 0 -1 0 -1 0 0 0 -1 1 -1 0 -1 0 0 1 -1 0 -1 0 0 1 -1 0 -1 1 0 0 -1 1 0 1 -1 0 0 1 -1 1 0 0 -14 -9zm12 46l0 0 -2 -1 -1 -1 -2 -1 -1 -1 -1 -1 -1 -1 -1 -2 -1 -1 -1 -1 -1 -2 -1 -1 0 -1 -1 -2 -1 -1 0 -2 -1 -1 0 -2 0 -2 -1 -1 0 -2 0 -1 0 -2 0 -2 1 -1 0 -2 0 -1 1 -2 0 -2 1 -1 0 -2 1 -1 1 -2 14 9 0 0 -1 1 0 1 0 1 0 1 -1 0 0 1 0 1 0 1 0 1 0 0 0 1 0 1 0 1 0 1 0 0 1 1 0 1 0 1 1 0 0 1 0 1 1 0 0 1 1 1 0 0 1 1 0 1 1 0 1 1 0 0 1 1 0 0 -8 14zm45 -12l-1 2 -1 1 -1 1 -1 2 -1 1 -1 1 -1 1 -2 1 -1 1 -1 1 -2 1 -1 0 -2 1 -1 1 -2 0 -1 0 -2 1 -1 0 -2 0 -1 0 -2 1 -2 0 -1 -1 -2 0 -1 0 -2 0 -2 -1 -1 0 -2 -1 -1 -1 -2 0 -1 -1 8 -14 1 0 1 0 0 1 1 0 1 0 1 0 1 1 0 0 1 0 1 0 1 0 1 0 0 0 1 0 1 0 1 -1 1 0 0 0 1 0 1 -1 0 0 1 0 1 -1 1 0 0 -1 1 0 0 -1 1 -1 0 0 1 -1 0 -1 1 0 14 8zm76 55l-89 -53 9 -14 88 52 -1 15 -7 0zm7 0l-4 1 -3 -1 7 0zm73 -23l-73 23 -5 -16 73 -23 5 16z"/>
         </g>
         <g>
          <path class="fil6" d="M3855 691l0 0 2 1 1 1 2 1 1 1 1 2 1 1 1 1 1 1 1 2 1 1 1 1 0 2 1 1 1 2 0 1 1 2 0 1 0 2 1 2 0 1 0 2 0 1 0 2 -1 2 0 1 0 2 -1 1 0 2 -1 2 0 1 -1 2 -1 1 -14 -8 0 -1 1 -1 0 -1 0 0 0 -1 1 -1 0 -1 0 -1 0 0 0 -1 0 -1 0 -1 0 -1 0 0 0 -1 0 -1 -1 -1 0 -1 0 0 -1 -1 0 -1 0 0 -1 -1 0 -1 -1 0 0 -1 -1 -1 0 0 -1 -1 -1 0 0 -1 -1 0 0 0 8 -15zm-45 12l0 0 1 -1 1 -2 1 -1 1 -1 1 -1 1 -2 1 -1 2 -1 1 -1 1 0 2 -1 1 -1 2 -1 1 0 2 -1 1 0 2 0 1 -1 2 0 1 0 2 0 2 0 1 0 2 0 1 0 2 1 2 0 1 1 2 0 1 1 2 1 1 0 -8 15 -1 -1 -1 0 0 0 -1 -1 -1 0 -1 0 -1 0 0 0 -1 0 -1 -1 -1 0 -1 1 0 0 -1 0 -1 0 -1 0 -1 0 0 0 -1 1 -1 0 0 0 -1 1 -1 0 -1 1 0 0 -1 1 0 0 -1 1 0 1 -1 0 0 1 -1 1 0 0 -14 -9zm11 46l0 0 -1 -1 -1 -1 -2 -1 -1 -1 -1 -1 -1 -1 -1 -2 -1 -1 -1 -1 -1 -2 -1 -1 -1 -2 0 -1 -1 -1 0 -2 -1 -2 0 -1 -1 -2 0 -1 0 -2 0 -1 0 -2 0 -2 0 -1 1 -2 0 -1 0 -2 1 -2 0 -1 1 -2 1 -1 1 -2 14 9 0 0 -1 1 0 1 0 1 -1 1 0 0 0 1 0 1 0 1 0 1 0 0 0 1 0 1 0 1 0 1 0 0 0 1 1 1 0 1 0 0 1 1 0 1 1 0 0 1 1 1 0 0 1 1 0 0 1 1 1 1 0 0 1 0 0 0 -9 15zm46 -12l-1 2 -1 1 -1 1 -1 2 -1 1 -1 1 -1 1 -2 1 -1 1 -1 1 -2 1 -1 0 -2 1 -1 0 -2 1 -1 0 -2 1 -1 0 -2 0 -2 0 -1 0 -2 0 -1 0 -2 0 -2 0 -1 0 -2 -1 -1 0 -2 -1 -2 -1 -1 0 -2 -1 9 -15 1 1 0 0 1 1 1 0 1 0 1 0 0 1 1 0 1 0 1 0 1 0 0 0 1 0 1 0 1 -1 1 0 0 0 1 0 1 0 1 -1 0 0 1 -1 1 0 0 0 1 -1 1 -1 0 0 1 -1 0 0 1 -1 0 -1 1 0 14 8zm281 175l-294 -173 8 -14 294 173 -8 14z"/>
         </g>
         <g>
          <path class="fil6" d="M4019 714l0 0 2 1 1 1 1 1 2 1 1 1 1 2 1 1 1 1 1 1 1 2 1 1 0 2 1 1 1 2 0 1 1 2 0 1 0 2 0 1 1 2 0 2 0 1 -1 2 0 1 0 2 0 2 -1 1 0 2 -1 1 0 2 -1 1 -1 2 -14 -9 0 0 0 -1 1 -1 0 -1 0 0 1 -1 0 -1 0 -1 0 -1 0 0 0 -1 0 -1 0 -1 0 -1 0 0 -1 -1 0 -1 0 -1 0 0 -1 -1 0 -1 0 -1 -1 0 0 -1 -1 -1 0 0 -1 -1 -1 0 0 -1 -1 0 -1 -1 0 0 0 0 8 -15zm-45 12l0 0 0 -1 1 -2 1 -1 2 -1 1 -2 1 -1 1 -1 1 -1 2 -1 1 -1 2 0 1 -1 1 -1 2 0 1 -1 2 0 2 -1 1 0 2 0 1 0 2 0 1 0 2 0 2 0 1 0 2 1 2 0 1 0 2 1 1 1 2 0 1 1 -8 15 -1 -1 -1 0 -1 -1 0 0 -1 0 -1 0 -1 0 0 -1 -1 0 -1 0 -1 0 -1 0 -1 0 0 1 -1 0 -1 0 -1 0 0 0 -1 1 -1 0 -1 0 0 1 -1 0 -1 1 0 0 -1 1 -1 0 0 1 -1 0 0 1 -1 1 0 0 0 0 -14 -8zm11 46l0 0 -1 -1 -1 -1 -2 -1 -1 -1 -1 -1 -1 -2 -1 -1 -1 -1 -1 -1 -1 -2 -1 -1 -1 -2 0 -1 -1 -2 -1 -1 0 -2 0 -1 -1 -2 0 -1 0 -2 0 -2 0 -1 0 -2 0 -1 0 -2 1 -2 0 -1 1 -2 0 -1 1 -2 1 -1 1 -2 14 8 0 1 -1 1 0 1 0 1 -1 0 0 1 0 1 0 1 0 1 0 0 0 1 0 1 0 1 0 1 0 0 0 1 0 1 1 1 0 0 0 1 1 1 0 1 0 0 1 1 0 1 1 0 0 1 1 0 1 1 0 0 1 1 1 0 0 0 -9 15zm46 -12l-1 1 -1 2 -1 1 -1 1 -1 2 -1 1 -2 1 -1 1 -1 1 -2 1 -1 0 -1 1 -2 1 -1 0 -2 1 -1 0 -2 1 -2 0 -1 0 -2 0 -1 0 -2 0 -2 0 -1 0 -2 0 -1 -1 -2 0 -2 0 -1 -1 -2 -1 -1 0 -2 -1 9 -15 1 1 0 0 1 0 1 1 1 0 0 0 1 0 1 0 1 1 1 0 0 0 1 0 1 0 1 -1 1 0 0 0 1 0 1 0 1 -1 0 0 1 0 1 -1 1 0 0 -1 1 0 0 -1 1 0 1 -1 0 0 1 -1 0 -1 1 -1 14 9zm281 175l-294 -173 8 -15 294 174 -8 14z"/>
         </g>
         <g>
          <path class="fil6" d="M3821 636l0 0 2 1 1 1 1 1 2 1 1 1 1 2 1 1 1 1 1 1 1 2 1 1 0 2 1 1 1 2 0 1 1 2 0 1 0 2 0 1 1 2 0 2 0 1 0 2 -1 1 0 2 0 2 -1 1 0 2 -1 1 0 2 -1 1 -1 2 -14 -9 0 0 0 -1 1 -1 0 -1 0 0 1 -1 0 -1 0 -1 0 -1 0 0 0 -1 0 -1 0 -1 0 -1 0 0 -1 -1 0 -1 0 -1 0 -1 -1 0 0 -1 0 -1 -1 0 0 -1 -1 -1 0 0 -1 -1 0 0 -1 -1 -1 0 0 -1 -1 0 0 0 8 -15zm-45 12l0 0 1 -2 1 -1 1 -1 1 -2 1 -1 1 -1 1 -1 2 -1 1 -1 1 -1 2 0 1 -1 2 -1 1 0 2 -1 1 0 2 -1 1 0 2 0 1 0 2 0 2 0 1 0 2 0 1 0 2 0 2 1 1 0 2 1 1 1 2 0 1 1 -8 15 -1 -1 -1 0 0 -1 -1 0 -1 0 -1 0 -1 0 0 -1 -1 0 -1 0 -1 0 -1 0 0 0 -1 0 -1 1 -1 0 -1 0 0 0 -1 1 -1 0 -1 0 0 1 -1 0 -1 1 0 0 -1 1 0 0 -1 1 -1 0 0 1 -1 1 0 0 0 0 -14 -8zm11 46l0 0 -1 -1 -1 -1 -2 -1 -1 -1 -1 -2 -1 -1 -1 -1 -1 -1 -1 -2 -1 -1 -1 -1 -1 -2 0 -1 -1 -2 0 -1 -1 -2 0 -1 -1 -2 0 -2 0 -1 0 -2 0 -1 0 -2 0 -2 1 -1 0 -2 0 -1 1 -2 0 -2 1 -1 1 -2 1 -1 14 8 0 1 -1 1 0 1 0 0 -1 1 0 1 0 1 0 1 0 0 0 1 0 1 0 1 0 1 0 0 0 1 0 1 0 1 1 1 0 0 0 1 1 1 0 0 0 1 1 1 0 0 1 1 1 1 0 0 1 1 0 0 1 1 1 0 0 0 -9 15zm46 -12l-1 1 -1 2 -1 1 -1 1 -1 2 -1 1 -2 1 -1 1 -1 1 -2 0 -1 1 -1 1 -2 1 -1 0 -2 1 -1 0 -2 1 -2 0 -1 0 -2 0 -1 0 -2 0 -2 0 -1 0 -2 0 -1 -1 -2 0 -2 -1 -1 0 -2 -1 -1 -1 -2 0 9 -15 1 1 0 0 1 0 1 1 1 0 0 0 1 0 1 0 1 0 1 1 0 0 1 0 1 -1 1 0 1 0 0 0 1 0 1 0 1 -1 0 0 1 0 1 -1 1 0 0 -1 1 0 1 -1 0 0 1 -1 0 -1 1 0 0 -1 1 -1 14 9zm230 146l-243 -144 8 -15 244 145 -2 15 -7 -1zm7 1l-4 1 -3 -2 7 1zm43 -11l-43 11 -4 -16 43 -11 4 16z"/>
         </g>
         <g>
          <path class="fil6" d="M3865 598l0 0 2 1 1 1 2 1 1 1 1 1 1 1 1 2 1 1 1 1 1 2 1 1 1 1 0 2 1 1 0 2 1 1 0 2 0 1 1 2 0 2 0 1 0 2 0 2 0 1 -1 2 0 1 -1 2 0 2 -1 1 0 2 -1 1 -1 2 -14 -9 0 -1 1 0 0 -1 0 -1 0 -1 1 0 0 -1 0 -1 0 -1 0 -1 0 -1 0 0 0 -1 0 -1 0 -1 0 0 -1 -1 0 -1 0 -1 0 -1 -1 0 0 -1 -1 -1 0 0 -1 -1 0 -1 -1 0 0 -1 -1 0 -1 -1 0 0 -1 -1 0 0 8 -14zm-45 12l0 0 1 -2 1 -1 1 -1 1 -2 1 -1 1 -1 1 -1 2 -1 1 -1 1 -1 2 -1 1 0 2 -1 1 -1 2 0 1 -1 2 0 1 0 2 0 2 -1 1 0 2 0 1 0 2 1 2 0 1 0 2 1 1 0 2 1 1 0 2 1 1 1 -8 14 -1 0 -1 0 0 -1 -1 0 -1 0 -1 -1 0 0 -1 0 -1 0 -1 0 -1 0 0 0 -1 0 -1 0 -1 0 -1 1 0 0 -1 0 -1 0 -1 1 0 0 -1 0 -1 1 0 0 -1 1 -1 0 0 1 -1 0 0 1 -1 1 0 0 -1 1 0 0 -14 -8zm12 45l0 0 -2 -1 -1 -1 -2 -1 -1 -1 -1 -1 -1 -1 -1 -1 -1 -2 -1 -1 -1 -1 -1 -2 -1 -1 0 -1 -1 -2 0 -1 -1 -2 0 -2 0 -1 -1 -2 0 -1 0 -2 0 -2 0 -1 0 -2 1 -1 0 -2 0 -2 1 -1 1 -2 0 -1 1 -2 1 -1 14 8 0 1 -1 1 0 0 0 1 -1 1 0 1 0 1 0 0 0 1 0 1 0 1 0 1 0 0 0 1 0 1 0 1 1 1 0 0 0 1 0 1 1 1 0 0 1 1 0 1 1 0 0 1 1 0 0 1 1 1 1 0 0 1 1 0 0 0 -8 14zm45 -11l-1 1 -1 1 -1 2 -1 1 -1 1 -1 1 -1 1 -2 1 -1 1 -1 1 -2 1 -1 1 -2 0 -1 1 -2 1 -1 0 -2 0 -1 1 -2 0 -2 0 -1 0 -2 0 -1 0 -2 0 -2 -1 -1 0 -2 0 -1 -1 -2 0 -1 -1 -2 -1 -1 -1 8 -14 1 0 1 1 0 0 1 0 1 1 1 0 0 0 1 0 1 0 1 0 1 0 0 0 1 0 1 0 1 0 1 0 0 0 1 -1 1 0 1 0 0 -1 1 0 1 0 0 -1 1 0 1 -1 0 -1 1 0 0 -1 1 0 0 -1 1 -1 14 9zm76 54l-89 -52 9 -15 88 53 -1 15 -7 -1zm7 1l-4 1 -3 -2 7 1zm73 -24l-73 24 -6 -16 74 -24 5 16z"/>
         </g>
        </g>
        <g>
         <path class="fil6" d="M3799 639l0 0 -1 -1 -2 -1 -1 -1 -1 -1 -1 -1 -2 -1 -1 -1 -1 -2 -1 -1 0 -1 -1 -2 -1 -1 -1 -2 0 -1 -1 -2 0 -1 0 -2 -1 -1 0 -2 0 -1 0 -2 0 -2 0 -1 0 -2 0 -1 1 -2 0 -2 1 -1 0 -2 1 -1 1 -2 0 -1 15 8 -1 1 0 1 0 0 -1 1 0 1 0 1 0 1 0 0 0 1 -1 1 0 1 1 1 0 0 0 1 0 1 0 1 0 1 0 0 1 1 0 1 0 0 1 1 0 1 1 1 0 0 1 1 0 0 1 1 1 0 0 1 1 0 1 1 0 0 -9 14zm46 -11l0 0 -1 1 -1 1 -1 2 -1 1 -1 1 -2 1 -1 1 -1 1 -1 1 -2 1 -1 1 -2 1 -1 0 -2 1 -1 0 -2 1 -1 0 -2 1 -1 0 -2 0 -1 0 -2 0 -2 0 -1 0 -2 -1 -2 0 -1 0 -2 -1 -1 0 -2 -1 -1 -1 -2 -1 9 -14 0 0 1 1 1 0 1 0 0 1 1 0 1 0 1 0 1 0 0 0 1 0 1 0 1 0 1 0 0 0 1 0 1 0 1 -1 1 0 0 0 1 -1 1 0 0 -1 1 0 1 -1 0 0 1 -1 0 0 1 -1 1 0 0 -1 0 -1 0 0 15 9zm-12 -46l0 0 2 1 1 1 1 1 2 1 1 1 1 1 1 1 1 2 1 1 1 1 1 2 0 1 1 2 0 1 1 2 0 1 1 2 0 1 0 2 0 2 0 1 0 2 0 1 0 2 0 2 0 1 -1 2 0 1 -1 2 -1 2 0 1 -1 2 -15 -9 1 -1 0 0 1 -1 0 -1 0 -1 0 -1 1 0 0 -1 0 -1 0 -1 0 -1 0 0 0 -1 0 -1 -1 -1 0 -1 0 0 0 -1 -1 -1 0 -1 0 0 -1 -1 0 -1 0 0 -1 -1 -1 -1 0 0 -1 -1 0 0 -1 -1 -1 0 0 -1 0 0 8 -14zm-46 12l1 -2 1 -1 1 -2 1 -1 2 -1 1 -1 1 -1 1 -1 2 -1 1 -1 1 -1 2 -1 1 0 2 -1 1 0 2 -1 1 0 2 0 2 -1 1 0 2 0 1 0 2 0 2 1 1 0 2 0 1 1 2 0 2 1 1 0 2 1 1 1 -8 14 -1 0 -1 -1 -1 0 0 0 -1 0 -1 -1 -1 0 -1 0 0 0 -1 0 -1 0 -1 0 -1 0 0 0 -1 0 -1 0 -1 1 -1 0 0 0 -1 1 -1 0 0 0 -1 1 -1 0 0 1 -1 0 -1 1 0 0 -1 1 0 1 -1 0 0 1 -15 -8zm-75 -55l89 53 -9 14 -89 -52 2 -16 7 1zm-7 -1l4 -1 3 2 -7 -1zm-73 24l73 -24 5 16 -73 24 -5 -16z"/>
        </g>
       </g>
       <g>
        <path class="fil6" d="M3880 313l0 0 2 0 1 1 2 1 1 1 1 1 2 1 1 1 1 2 1 1 1 1 1 2 0 1 1 1 1 2 1 1 0 2 1 1 0 2 0 1 0 2 1 2 0 1 0 2 0 2 0 1 -1 2 0 1 0 2 -1 2 0 1 -1 2 -1 1 -15 -7 1 -1 0 -1 0 -1 1 0 0 -1 0 -1 0 -1 0 -1 0 0 0 -1 0 -1 0 -1 0 -1 0 0 -1 -1 0 -1 0 -1 0 0 -1 -1 0 -1 0 -1 -1 0 0 -1 -1 -1 0 0 -1 -1 -1 0 0 -1 -1 0 -1 -1 0 0 -1 -1 0 0 7 -14zm-44 14l0 0 0 -1 1 -2 1 -1 1 -1 1 -2 1 -1 2 -1 1 -1 1 -1 1 -1 2 -1 1 -1 2 -1 1 0 2 -1 1 0 2 -1 1 0 2 -1 1 0 2 0 1 0 2 0 2 0 1 0 2 0 2 1 1 0 2 1 1 0 2 1 1 1 -7 14 -1 0 -1 0 0 -1 -1 0 -1 0 -1 0 -1 0 0 0 -1 0 -1 0 -1 0 -1 0 0 0 -1 0 -1 0 -1 0 -1 1 0 0 -1 0 -1 1 0 0 -1 1 -1 0 0 1 -1 0 -1 1 0 0 -1 1 0 1 -1 0 0 1 0 1 0 0 -15 -8zm14 45l0 0 -1 -1 -2 -1 -1 -1 -1 -1 -2 -1 -1 -1 -1 -1 -1 -1 -1 -1 -1 -2 -1 -1 -1 -1 0 -2 -1 -1 -1 -2 0 -1 -1 -2 0 -1 0 -2 -1 -2 0 -1 0 -2 0 -1 0 -2 0 -2 1 -1 0 -2 0 -1 1 -2 0 -2 1 -1 1 -2 15 8 -1 1 0 0 0 1 -1 1 0 1 0 1 0 0 0 1 0 1 0 1 0 1 0 0 0 1 0 1 0 1 1 0 0 1 0 1 1 1 0 0 0 1 1 1 0 0 1 1 0 1 1 0 0 1 1 0 1 1 0 0 1 1 1 0 0 0 -8 15zm45 -15l-1 2 -1 1 0 2 -1 1 -2 1 -1 1 -1 2 -1 1 -1 1 -2 1 -1 1 -1 0 -2 1 -1 1 -2 0 -1 1 -2 0 -1 1 -2 0 -1 0 -2 0 -2 1 -1 0 -2 0 -1 -1 -2 0 -2 0 -1 -1 -2 0 -1 -1 -2 0 -2 -1 8 -15 1 0 0 1 1 0 1 0 1 1 1 0 0 0 1 0 1 0 1 0 1 0 0 0 1 0 1 0 1 -1 1 0 0 0 1 0 1 -1 1 0 0 -1 1 0 1 -1 0 0 1 -1 0 0 1 -1 0 0 1 -1 0 -1 1 0 0 -1 15 7zm80 50l-93 -47 8 -15 92 47 -1 15 -6 0zm6 0l-3 1 -3 -1 6 0zm73 -28l-73 28 -5 -15 72 -28 6 15z"/>
       </g>
       <g>
        <path class="fil6" d="M3654 303l0 0 2 1 1 1 2 1 1 1 1 1 1 1 2 1 1 1 1 1 1 2 1 1 0 1 1 2 1 1 0 2 1 1 0 2 1 1 0 2 0 1 1 2 0 2 0 1 0 2 -1 2 0 1 0 2 0 1 -1 2 -1 2 0 1 -1 2 -15 -8 1 -1 0 0 0 -1 0 -1 1 -1 0 -1 0 0 0 -1 0 -1 0 -1 0 -1 0 0 0 -1 0 -1 -1 -1 0 -1 0 0 0 -1 -1 -1 0 0 -1 -1 0 -1 0 -1 -1 0 -1 -1 0 0 -1 -1 0 0 -1 -1 -1 0 0 -1 -1 0 0 0 7 -15zm-44 15l0 0 0 -2 1 -1 1 -2 1 -1 1 -1 1 -1 2 -2 1 -1 1 -1 1 -1 2 -1 1 0 1 -1 2 -1 1 0 2 -1 1 0 2 -1 2 0 1 0 2 -1 1 0 2 0 2 0 1 1 2 0 1 0 2 1 2 0 1 1 2 0 1 1 -7 15 -1 -1 -1 0 -1 0 0 0 -1 -1 -1 0 -1 0 -1 0 0 0 -1 0 -1 0 -1 0 -1 0 0 0 -1 1 -1 0 -1 0 0 0 -1 1 -1 0 0 1 -1 0 -1 0 0 1 -1 1 -1 0 0 1 -1 0 0 1 -1 1 0 0 -1 1 0 0 -14 -7zm14 44l0 0 -1 0 -2 -1 -1 -1 -1 -1 -2 -1 -1 -1 -1 -2 -1 -1 -1 -1 -1 -1 -1 -2 -1 -1 0 -1 -1 -2 -1 -1 0 -2 -1 -1 0 -2 0 -2 -1 -1 0 -2 0 -1 0 -2 0 -2 0 -1 0 -2 1 -1 0 -2 1 -2 0 -1 1 -2 1 -1 14 7 0 1 0 1 -1 1 0 0 0 1 0 1 0 1 0 1 0 0 0 1 0 1 0 1 0 1 0 0 0 1 1 1 0 1 0 0 0 1 1 1 0 1 1 0 0 1 1 0 0 1 1 1 0 0 1 1 1 0 0 1 1 0 1 1 0 0 -8 14zm45 -14l-1 1 -1 2 -1 1 -1 1 -1 2 -1 1 -1 1 -1 1 -1 1 -2 1 -1 1 -1 1 -2 0 -1 1 -2 1 -1 0 -2 1 -1 0 -2 0 -1 1 -2 0 -2 0 -1 0 -2 0 -2 0 -1 0 -2 -1 -1 0 -2 -1 -2 0 -1 -1 -2 -1 8 -14 1 0 0 0 1 1 1 0 1 0 1 0 0 0 1 0 1 0 1 0 1 0 0 0 1 0 1 0 1 0 1 -1 0 0 1 0 1 0 0 -1 1 0 1 -1 1 0 0 -1 1 0 0 -1 1 0 0 -1 1 -1 0 0 1 -1 0 -1 15 8zm293 157l-306 -155 8 -14 305 154 -7 15z"/>
       </g>
       <g>
        <path class="fil6" d="M3821 316l0 0 1 1 2 0 1 1 1 1 2 1 1 2 1 1 1 1 1 1 1 2 1 1 1 1 0 2 1 1 1 2 0 1 1 2 0 1 0 2 1 1 0 2 0 2 0 1 0 2 0 1 0 2 -1 2 0 1 -1 2 0 1 -1 2 -1 2 -14 -8 0 -1 0 -1 1 0 0 -1 0 -1 0 -1 0 -1 0 0 0 -1 0 -1 0 -1 0 -1 0 0 0 -1 0 -1 -1 -1 0 0 0 -1 0 -1 -1 -1 0 0 -1 -1 0 -1 -1 0 0 -1 -1 0 0 -1 -1 -1 -1 0 0 0 -1 -1 -1 0 0 0 8 -15zm-45 15l0 0 1 -2 1 -1 1 -2 1 -1 1 -1 1 -2 1 -1 1 -1 1 -1 2 -1 1 -1 1 -1 2 0 1 -1 2 -1 1 0 2 -1 1 0 2 0 1 -1 2 0 2 0 1 0 2 0 2 0 1 1 2 0 1 0 2 1 2 0 1 1 2 1 -8 15 -1 -1 0 0 -1 0 -1 -1 -1 0 -1 0 0 0 -1 0 -1 0 -1 0 -1 0 0 0 -1 0 -1 0 -1 0 -1 1 0 0 -1 0 -1 1 0 0 -1 0 -1 1 0 0 -1 1 -1 0 0 1 -1 1 0 0 -1 1 0 1 -1 0 0 1 0 0 -15 -7zm15 44l0 0 -2 -1 -1 0 -2 -1 -1 -1 -1 -1 -1 -1 -2 -2 -1 -1 -1 -1 -1 -1 -1 -2 0 -1 -1 -2 -1 -1 0 -2 -1 -1 0 -2 -1 -1 0 -2 0 -1 -1 -2 0 -1 0 -2 0 -2 1 -1 0 -2 0 -2 1 -1 0 -2 1 -1 0 -2 1 -1 15 7 -1 1 0 1 0 0 0 1 -1 1 0 1 0 1 0 0 0 1 0 1 0 1 0 1 0 0 0 1 1 1 0 1 0 1 0 0 1 1 0 1 1 0 0 1 0 1 1 0 1 1 0 1 1 0 0 1 1 0 1 1 0 0 1 0 0 0 -7 15zm44 -14l0 1 -1 1 -1 2 -1 1 -1 1 -1 2 -2 1 -1 1 -1 1 -1 1 -2 1 -1 1 -1 0 -2 1 -1 1 -2 0 -1 1 -2 0 -2 0 -1 1 -2 0 -1 0 -2 0 -2 0 -1 0 -2 -1 -1 0 -2 0 -2 -1 -1 0 -2 -1 -1 -1 7 -15 1 1 1 0 1 0 0 1 1 0 1 0 1 0 1 0 0 0 1 0 1 0 1 0 1 0 0 0 1 0 1 -1 1 0 0 0 1 -1 1 0 1 0 0 -1 1 0 0 -1 1 0 1 -1 0 0 1 -1 0 -1 1 0 0 -1 1 -1 14 8zm293 156l-306 -154 8 -15 306 155 -8 14z"/>
       </g>
       <g>
        <path class="fil6" d="M3617 250l0 0 1 1 2 1 1 1 2 1 1 1 1 1 1 1 1 1 1 2 1 1 1 1 1 2 1 1 0 2 1 1 0 2 1 1 0 2 1 1 0 2 0 1 0 2 0 2 0 1 0 2 0 2 -1 1 0 2 0 1 -1 2 -1 2 0 1 -15 -7 0 -1 0 -1 1 -1 0 -1 0 0 0 -1 0 -1 0 -1 0 -1 0 0 0 -1 0 -1 0 -1 0 -1 0 0 0 -1 -1 -1 0 -1 0 0 -1 -1 0 -1 0 0 -1 -1 0 -1 -1 0 -1 -1 0 0 -1 -1 0 -1 -1 0 -1 0 -1 -1 0 0 8 -15zm-45 15l0 0 1 -2 1 -1 1 -1 1 -2 1 -1 1 -1 1 -1 1 -1 2 -1 1 -1 1 -1 2 -1 1 -1 1 0 2 -1 1 -1 2 0 2 0 1 -1 2 0 1 0 2 0 2 0 1 0 2 0 1 0 2 0 2 1 1 0 2 1 1 1 2 0 -8 15 0 0 -1 -1 -1 0 -1 0 -1 0 0 0 -1 -1 -1 0 -1 0 -1 0 0 0 -1 1 -1 0 -1 0 -1 0 0 0 -1 0 -1 1 -1 0 0 0 -1 1 -1 0 0 1 -1 0 -1 1 0 0 -1 1 0 1 -1 0 0 1 -1 1 0 1 0 0 -15 -8zm15 45l0 0 -2 -1 -1 -1 -2 -1 -1 -1 -1 -1 -1 -1 -2 -1 -1 -1 -1 -2 -1 -1 0 -1 -1 -2 -1 -1 -1 -2 0 -1 -1 -2 0 -1 -1 -2 0 -1 0 -2 0 -1 0 -2 0 -2 0 -1 0 -2 0 -1 0 -2 1 -2 0 -1 1 -2 0 -1 1 -2 15 8 0 0 -1 1 0 1 0 1 0 0 -1 1 0 1 0 1 0 1 0 0 0 1 0 1 0 1 1 1 0 0 0 1 0 1 1 1 0 0 0 1 1 1 0 1 1 0 0 1 1 0 0 1 1 1 0 0 1 1 1 0 1 0 0 1 0 0 -7 15zm45 -15l-1 2 -1 1 -1 1 -1 2 -1 1 -1 1 -1 1 -2 1 -1 1 -1 1 -2 1 -1 1 -1 1 -2 1 -1 0 -2 1 -1 0 -2 1 -1 0 -2 0 -2 0 -1 0 -2 0 -1 0 -2 0 -2 0 -1 0 -2 -1 -2 0 -1 -1 -2 0 -1 -1 7 -15 1 0 1 1 1 0 0 0 1 0 1 0 1 1 1 0 0 0 1 0 1 0 1 0 1 -1 0 0 1 0 1 0 1 0 1 -1 0 0 1 0 1 -1 0 0 1 -1 1 0 0 -1 1 0 0 -1 1 -1 0 0 1 -1 0 -1 1 0 15 7zm240 131l-253 -128 7 -15 254 128 -1 16 -7 -1zm7 1l-4 1 -3 -2 7 1zm43 -14l-43 14 -5 -16 43 -14 5 16z"/>
       </g>
       <g>
        <path class="fil6" d="M3816 326l0 0 -2 -1 -1 -1 -2 0 -1 -1 -1 -2 -2 -1 -1 -1 -1 -1 -1 -1 -1 -2 -1 -1 0 -1 -1 -2 -1 -1 0 -2 -1 -1 0 -2 -1 -1 0 -2 0 -1 -1 -2 0 -2 0 -1 0 -2 1 -1 0 -2 0 -2 0 -1 1 -2 1 -2 0 -1 1 -2 15 8 -1 1 0 0 0 1 0 1 -1 1 0 1 0 0 0 1 0 1 0 1 0 1 0 0 0 1 0 1 1 1 0 1 0 0 0 1 1 1 0 1 1 0 0 1 0 1 1 0 0 1 1 0 1 1 0 0 1 1 1 0 0 1 1 0 0 0 -7 15zm44 -15l0 0 0 2 -1 1 -1 2 -1 1 -1 1 -1 2 -2 1 -1 1 -1 1 -1 1 -2 1 -1 0 -2 1 -1 1 -1 1 -2 0 -1 1 -2 0 -2 0 -1 0 -2 1 -1 0 -2 0 -2 0 -1 -1 -2 0 -1 0 -2 0 -2 -1 -1 0 -2 -1 -1 -1 7 -15 1 1 1 0 0 0 1 0 1 1 1 0 1 0 0 0 1 0 1 0 1 0 1 0 1 0 0 0 1 -1 1 0 1 0 0 0 1 -1 1 0 0 0 1 -1 1 0 0 -1 1 0 1 -1 0 -1 1 0 0 -1 1 -1 0 0 1 -1 0 0 14 7zm-14 -44l0 0 1 0 2 1 1 1 1 1 2 1 1 1 1 2 1 1 1 1 1 1 1 2 1 1 0 2 1 1 1 1 0 2 1 2 0 1 0 2 1 1 0 2 0 1 0 2 0 2 0 1 0 2 -1 2 0 1 -1 2 0 1 -1 2 -1 1 -14 -7 0 -1 0 -1 0 0 1 -1 0 -1 0 -1 0 -1 0 0 0 -1 0 -1 0 -1 0 -1 0 0 0 -1 0 -1 -1 -1 0 -1 0 0 0 -1 -1 -1 0 0 -1 -1 0 -1 -1 0 0 -1 -1 -1 0 0 -1 -1 -1 0 0 -1 -1 0 -1 0 0 0 8 -15zm-45 14l1 -1 1 -2 1 -1 1 -1 1 -2 1 -1 1 -1 1 -1 1 -1 2 -1 1 -1 1 -1 2 0 1 -1 2 -1 1 0 2 -1 1 0 2 0 1 -1 2 0 2 0 1 0 2 0 2 0 1 1 2 0 1 0 2 1 2 0 1 1 2 1 -8 15 -1 -1 0 0 -1 0 -1 -1 -1 0 -1 0 0 0 -1 0 -1 0 -1 0 -1 0 0 0 -1 0 -1 0 -1 0 -1 1 0 0 -1 0 -1 0 0 1 -1 0 -1 1 -1 0 0 1 -1 0 0 1 -1 0 0 1 -1 1 0 0 -1 1 0 1 -15 -8zm-80 -49l93 47 -8 14 -92 -46 1 -15 6 0zm-6 0l3 -2 3 2 -6 0zm-73 27l73 -27 6 15 -73 28 -6 -16z"/>
       </g>
      </g>
     </g>
     <path class="fil4" d="M3812 571c-63,-27 -127,-54 -191,-81l-6 -3 -1 1c-6,-3 -19,0 -37,9 -28,11 -82,-10 -120,-25 -31,-14 -41,-51 -26,-85 2,-4 9,-7 16,-6 68,9 125,36 170,84 4,2 9,4 13,6 61,25 122,51 182,77l0 23z"/>
     <path class="fil5" d="M4055 632c64,25 129,50 193,76l7 2 -1 1c7,2 14,14 20,33 13,27 66,50 104,65 32,13 65,-7 78,-42 1,-4 -1,-12 -7,-15 -55,-42 -115,-62 -180,-59 -5,-2 -9,-4 -14,-5 -61,-24 -123,-48 -184,-73l-16 17z"/>
     <g style="clip-path:url(#id3)">
      <g>
       <g>
        <g>
         <g>
          <path id="1" class="fil6" d="M3748 614l0 0 -2 -1 -1 0 -2 -1 -1 -1 -2 0 -1 -1 -2 -1 -1 -1 -1 -1 -1 -1 -2 -1 -1 -1 -1 -2 -1 -1 -1 -1 -1 -2 0 -1 -1 -1 -1 -2 0 -1 -1 -2 0 -1 -1 -2 0 -2 0 -1 0 -2 0 -1 0 -2 0 -2 0 -1 0 -2 1 -2 16 4 0 1 -1 1 0 1 0 1 0 0 0 1 0 1 1 1 0 1 0 0 0 1 0 1 1 1 0 0 0 1 1 1 0 0 1 1 0 1 1 0 0 1 1 1 0 0 1 1 1 0 0 0 1 1 1 0 1 1 0 0 1 0 1 0 0 0 -4 17zm40 -25l0 0 0 2 -1 1 0 2 -1 1 -1 2 0 1 -1 2 -1 1 -1 1 -1 2 -1 1 -2 1 -1 1 -1 1 -1 1 -2 1 -1 0 -2 1 -1 1 -2 0 -1 1 -2 0 -1 1 -2 0 -1 0 -2 0 -2 0 -1 0 -2 0 -2 0 -1 0 -2 0 4 -17 1 1 1 0 1 0 0 0 1 0 1 0 1 0 1 0 0 -1 1 0 1 0 1 0 0 -1 1 0 1 0 1 -1 0 0 1 -1 1 0 0 -1 1 0 0 -1 1 0 0 -1 1 -1 0 0 1 -1 0 -1 0 0 1 -1 0 -1 0 -1 0 0 16 4zm-24 -40l0 0 2 0 1 1 2 0 1 1 2 1 1 1 2 0 1 1 1 1 1 1 2 2 1 1 1 1 1 1 1 2 0 1 1 1 1 2 1 1 0 2 1 1 0 2 1 1 0 2 0 1 0 2 0 2 0 1 0 2 0 2 0 1 -1 2 -16 -4 0 -1 0 -1 1 0 0 -1 0 -1 0 -1 0 -1 -1 0 0 -1 0 -1 0 -1 0 -1 -1 0 0 -1 0 -1 -1 0 0 -1 -1 -1 0 0 -1 -1 0 -1 -1 0 0 -1 -1 0 -1 -1 0 0 -1 -1 -1 0 -1 0 0 -1 -1 0 -1 0 0 0 4 -16zm-40 24l0 -1 1 -2 0 -2 1 -1 1 -2 0 -1 1 -1 1 -2 1 -1 1 -1 1 -1 2 -2 1 -1 1 -1 1 0 2 -1 1 -1 2 -1 1 -1 1 0 2 -1 2 0 1 0 2 -1 1 0 2 0 2 0 1 0 2 0 2 0 1 0 2 1 -4 16 -1 0 -1 0 -1 0 0 -1 -1 0 -1 1 -1 0 -1 0 0 0 -1 0 -1 0 -1 1 -1 0 0 0 -1 1 -1 0 0 0 -1 1 -1 0 0 1 -1 0 0 1 -1 1 0 0 -1 1 0 1 -1 0 0 1 0 1 -1 1 0 0 0 1 -16 -4zm-89 -30l101 25 -4 16 -101 -25 -5 -4 9 -12zm-4 16l-3 -1 -2 -3 5 4zm-26 -80l36 68 -15 8 -36 -68 15 -8z"/>
         </g>
         <g>
          <path class="fil6" d="M3924 753l0 0 -2 0 -1 -1 -2 -1 -2 0 -1 -1 -1 -1 -2 -1 -1 -1 -1 -1 -2 -1 -1 -1 -1 -1 -1 -1 -1 -1 -1 -2 -1 -1 -1 -1 0 -2 -1 -1 -1 -2 0 -1 0 -2 -1 -2 0 -1 0 -2 -1 -1 0 -2 0 -2 1 -1 0 -2 0 -2 0 -1 17 4 -1 0 0 1 0 1 0 1 0 1 0 1 0 0 0 1 0 1 1 1 0 1 0 0 0 1 1 1 0 1 1 0 0 1 0 1 1 0 0 1 1 0 1 1 0 0 1 1 0 0 1 1 1 0 1 1 0 0 1 0 1 1 1 0 0 0 -4 16zm40 -24l0 0 0 1 -1 2 0 1 -1 2 -1 1 -1 2 -1 1 -1 2 -1 1 -1 1 -1 1 -1 1 -1 1 -1 1 -2 1 -1 1 -1 1 -2 1 -1 0 -2 1 -1 0 -2 1 -1 0 -2 1 -2 0 -1 0 -2 0 -2 0 -1 0 -2 0 -2 -1 -1 0 4 -16 1 0 0 0 1 0 1 0 1 0 1 0 1 0 0 0 1 0 1 0 1 0 0 -1 1 0 1 0 1 -1 0 0 1 -1 1 0 0 -1 1 0 1 -1 0 0 1 -1 0 0 1 -1 0 -1 0 0 1 -1 0 -1 0 -1 1 -1 0 0 0 0 16 4zm-24 -41l0 0 1 1 2 0 2 1 1 1 2 0 1 1 1 1 2 1 1 1 1 1 1 1 1 1 1 1 1 2 1 1 1 1 1 2 1 1 0 2 1 1 1 2 0 1 0 2 1 1 0 2 0 2 0 1 0 2 0 2 0 1 -1 2 0 2 -16 -4 0 -1 0 -1 0 -1 0 -1 0 -1 0 0 0 -1 0 -1 0 -1 0 -1 0 0 -1 -1 0 -1 0 -1 -1 0 0 -1 0 -1 -1 0 0 -1 -1 -1 0 0 -1 -1 -1 0 0 -1 -1 0 -1 -1 0 0 -1 0 -1 -1 -1 0 0 0 -1 -1 0 0 4 -16zm-41 25l1 -2 0 -2 1 -1 1 -2 0 -1 1 -2 1 -1 1 -1 1 -2 1 -1 1 -1 1 -1 2 -1 1 -1 1 -1 1 -1 2 -1 1 0 2 -1 1 -1 2 0 1 -1 2 0 1 0 2 -1 2 0 1 0 2 0 2 0 1 1 2 0 2 0 -4 16 -1 0 -1 0 -1 0 -1 0 0 0 -1 0 -1 0 -1 0 -1 0 0 0 -1 1 -1 0 -1 0 0 1 -1 0 -1 0 -1 1 0 0 -1 1 0 0 -1 1 -1 0 0 1 -1 1 0 0 -1 1 0 1 0 0 -1 1 0 1 0 1 0 1 -17 -4zm-319 -87l331 81 -4 16 -331 -81 4 -16z"/>
         </g>
         <g>
          <path class="fil6" d="M3791 655l0 0 -2 -1 -2 0 -1 -1 -2 0 -1 -1 -2 -1 -1 -1 -1 -1 -2 -1 -1 -1 -1 -1 -1 -1 -1 -1 -1 -2 -1 -1 -1 -1 -1 -2 0 -1 -1 -2 -1 -1 0 -2 -1 -1 0 -2 0 -1 -1 -2 0 -2 0 -1 0 -2 0 -2 1 -1 0 -2 0 -2 16 4 0 1 0 1 0 1 0 1 0 1 0 0 0 1 0 1 0 1 0 1 1 0 0 1 0 1 1 1 0 0 0 1 1 1 0 0 1 1 0 1 1 0 0 1 1 0 1 1 0 0 1 1 1 0 0 0 1 1 1 0 1 0 1 1 0 0 -4 16zm40 -25l0 0 -1 2 0 2 -1 1 0 2 -1 1 -1 2 -1 1 -1 1 -1 2 -1 1 -1 1 -1 1 -1 1 -2 1 -1 1 -1 1 -2 1 -1 0 -1 1 -2 1 -1 0 -2 1 -2 0 -1 0 -2 1 -1 0 -2 0 -2 0 -1 0 -2 -1 -2 0 -1 0 4 -16 0 0 1 0 1 0 1 0 1 0 1 0 0 0 1 0 1 0 1 0 1 -1 0 0 1 0 1 -1 1 0 0 0 1 -1 1 0 0 -1 1 0 0 -1 1 0 0 -1 1 -1 0 0 1 -1 0 -1 1 0 0 -1 0 -1 1 -1 0 -1 0 0 16 4zm-24 -40l0 0 1 1 2 0 1 1 2 0 1 1 2 1 1 1 1 1 2 1 1 1 1 1 1 1 1 1 1 2 1 1 1 1 1 2 1 1 0 1 1 2 0 1 1 2 0 2 0 1 1 2 0 1 0 2 0 2 0 1 0 2 -1 2 0 1 -16 -4 0 0 0 -1 0 -1 0 -1 0 -1 0 -1 0 0 0 -1 0 -1 0 -1 -1 -1 0 0 0 -1 0 -1 -1 -1 0 0 -1 -1 0 -1 -1 0 0 -1 -1 0 0 -1 -1 0 0 -1 -1 0 -1 -1 -1 0 0 -1 -1 0 -1 0 -1 -1 0 0 0 0 4 -16zm-41 24l1 -1 0 -2 1 -1 0 -2 1 -1 1 -2 1 -1 1 -1 1 -2 1 -1 1 -1 1 -1 1 -1 2 -1 1 -1 1 -1 2 -1 1 -1 2 0 1 -1 2 0 1 -1 2 0 1 0 2 -1 2 0 1 0 2 0 2 0 1 0 2 1 2 0 -4 16 -1 0 -1 0 -1 0 -1 0 -1 0 0 0 -1 0 -1 0 -1 0 -1 0 0 1 -1 0 -1 0 -1 0 0 1 -1 0 -1 1 0 0 -1 1 -1 0 0 1 -1 0 0 1 -1 0 0 1 -1 1 0 1 0 0 -1 1 0 1 0 1 -1 0 -16 -4zm-319 -86l331 81 -4 16 -331 -81 4 -16z"/>
         </g>
         <g>
          <path class="fil6" d="M3987 737l0 0 -2 0 -1 -1 -2 0 -2 -1 -1 -1 -1 0 -2 -1 -1 -1 -1 -1 -2 -1 -1 -1 -1 -2 -1 -1 -1 -1 -1 -1 -1 -2 -1 -1 0 -2 -1 -1 -1 -2 0 -1 -1 -2 0 -1 0 -2 0 -1 -1 -2 0 -2 0 -1 1 -2 0 -2 0 -1 0 -2 17 4 -1 1 0 1 0 0 0 1 0 1 0 1 0 1 0 1 0 0 1 1 0 1 0 1 0 0 1 1 0 1 0 1 1 0 0 1 1 1 0 0 1 1 1 0 0 1 1 0 0 1 1 0 1 1 1 0 0 0 1 1 1 0 1 0 0 0 -4 16zm40 -24l0 0 0 1 -1 2 0 2 -1 1 -1 2 -1 1 -1 1 -1 2 -1 1 -1 1 -1 1 -1 2 -1 1 -1 1 -2 1 -1 0 -1 1 -2 1 -1 1 -2 0 -1 1 -2 0 -1 1 -2 0 -2 0 -1 0 -2 0 -2 0 -1 0 -2 0 -2 0 -1 -1 4 -16 1 0 0 0 1 1 1 0 1 0 1 0 1 -1 0 0 1 0 1 0 1 0 0 0 1 -1 1 0 1 0 0 -1 1 0 1 -1 0 0 1 -1 1 0 0 -1 1 -1 0 0 1 -1 0 0 0 -1 1 -1 0 -1 0 0 1 -1 0 -1 0 0 16 4zm-24 -40l0 0 1 0 2 1 1 0 2 1 1 1 2 0 1 1 2 1 1 1 1 1 1 1 1 1 1 2 1 1 1 1 1 2 1 1 1 1 0 2 1 1 0 2 1 1 0 2 1 2 0 1 0 2 0 1 0 2 0 2 0 1 -1 2 0 2 -16 -4 0 -1 0 -1 0 -1 0 0 0 -1 0 -1 0 -1 0 -1 0 -1 0 0 0 -1 -1 -1 0 -1 0 0 -1 -1 0 -1 0 0 -1 -1 0 -1 -1 0 -1 -1 0 0 -1 -1 0 0 -1 -1 -1 0 0 -1 -1 0 -1 0 -1 -1 -1 0 0 0 0 0 4 -16zm-41 24l1 -2 0 -1 1 -2 1 -1 0 -2 1 -1 1 -2 1 -1 1 -1 1 -1 1 -2 1 -1 2 -1 1 -1 1 -1 1 -1 2 0 1 -1 2 -1 1 0 2 -1 1 0 2 -1 1 0 2 0 2 0 1 0 2 0 2 0 1 0 2 0 2 1 -4 16 -1 0 -1 -1 -1 0 -1 0 -1 0 0 0 -1 0 -1 0 -1 1 -1 0 0 0 -1 0 -1 1 -1 0 0 0 -1 1 -1 0 0 1 -1 0 -1 1 0 0 -1 1 0 0 -1 1 0 1 -1 0 0 1 0 1 -1 1 0 0 0 1 0 1 -17 -4zm-263 -73l275 67 -4 17 -275 -68 -5 -3 9 -13zm-4 16l-3 0 -2 -3 5 3zm-14 -50l23 38 -14 9 -23 -38 14 -9z"/>
         </g>
         <g>
          <path class="fil6" d="M3982 679l0 0 -2 0 -1 -1 -2 0 -1 -1 -2 -1 -1 -1 -2 -1 -1 -1 -1 -1 -2 -1 -1 -1 -1 -1 -1 -1 -1 -1 -1 -2 -1 -1 0 -1 -1 -2 -1 -1 0 -2 -1 -1 0 -2 -1 -1 0 -2 0 -2 0 -1 0 -2 0 -2 0 -1 0 -2 0 -2 0 -1 17 4 -1 1 0 0 0 1 0 1 0 1 0 1 0 1 0 0 1 1 0 1 0 1 0 0 1 1 0 1 0 1 1 0 0 1 1 1 0 0 1 1 0 1 1 0 0 1 1 0 1 1 0 0 1 0 1 1 0 0 1 0 1 1 1 0 0 0 -4 16zm40 -24l0 0 0 1 -1 2 0 1 -1 2 -1 1 -1 2 0 1 -1 2 -1 1 -1 1 -2 1 -1 1 -1 1 -1 1 -2 1 -1 1 -1 1 -2 1 -1 0 -2 1 -1 1 -2 0 -1 0 -2 1 -1 0 -2 0 -2 0 -1 0 -2 0 -2 0 -1 -1 -2 0 4 -16 1 0 1 0 0 0 1 0 1 0 1 0 1 0 0 0 1 0 1 0 1 0 1 -1 0 0 1 0 1 -1 1 0 0 0 1 -1 0 0 1 -1 1 0 0 -1 1 -1 0 0 1 -1 0 -1 1 0 0 -1 0 -1 1 -1 0 0 0 -1 0 0 16 4zm-24 -41l0 0 1 1 2 0 2 1 1 1 2 0 1 1 1 1 2 1 1 1 1 1 1 1 2 1 1 2 1 1 0 1 1 1 1 2 1 1 1 2 0 1 1 2 0 1 0 2 1 1 0 2 0 2 0 1 0 2 0 2 0 1 0 2 -1 2 -16 -4 0 -1 0 -1 0 -1 1 -1 0 0 0 -1 -1 -1 0 -1 0 -1 0 0 0 -1 0 -1 -1 -1 0 0 0 -1 -1 -1 0 -1 -1 0 0 -1 -1 0 0 -1 -1 -1 -1 0 0 -1 -1 0 -1 -1 0 0 -1 0 -1 -1 -1 0 0 0 -1 0 0 0 4 -17zm-41 25l1 -2 0 -1 1 -2 1 -2 0 -1 1 -1 1 -2 1 -1 1 -1 1 -2 1 -1 1 -1 2 -1 1 -1 1 -1 2 -1 1 -1 1 0 2 -1 1 -1 2 0 1 -1 2 0 2 0 1 0 2 -1 1 0 2 0 2 1 1 0 2 0 2 0 -4 17 -1 -1 -1 0 -1 0 -1 0 0 0 -1 0 -1 0 -1 0 -1 0 0 1 -1 0 -1 0 -1 0 0 1 -1 0 -1 0 0 1 -1 0 -1 1 0 0 -1 1 0 1 -1 0 -1 1 0 0 0 1 -1 1 0 1 -1 0 0 1 0 1 0 1 -17 -4zm-88 -30l100 24 -3 16 -101 -24 -5 -4 9 -12zm-4 16l-3 -1 -2 -3 5 4zm-26 -80l36 68 -15 8 -36 -68 15 -8z"/>
         </g>
        </g>
        <g>
         <path class="fil6" d="M4032 625l0 0 2 1 1 0 2 1 1 1 2 0 1 1 2 1 1 1 1 1 2 1 1 1 1 1 1 2 1 1 1 1 1 2 0 1 1 1 1 2 0 1 1 2 0 1 1 2 0 2 0 1 0 2 1 1 0 2 -1 2 0 1 0 2 0 2 -17 -4 1 -1 0 -1 0 -1 0 -1 0 0 0 -1 0 -1 0 -1 0 -1 -1 0 0 -1 0 -1 0 -1 -1 0 0 -1 -1 -1 0 0 0 -1 -1 -1 0 0 -1 -1 -1 -1 0 0 -1 -1 -1 0 0 0 -1 -1 -1 0 0 -1 -1 0 -1 0 -1 0 0 0 4 -17zm-40 25l0 0 0 -2 1 -1 0 -2 1 -1 1 -2 1 -1 1 -2 0 -1 1 -1 2 -2 1 -1 1 -1 1 -1 1 -1 2 -1 1 -1 1 0 2 -1 1 -1 2 0 1 -1 2 0 1 -1 2 0 2 0 1 0 2 0 1 0 2 0 2 0 1 0 2 0 -4 17 -1 -1 -1 0 0 0 -1 0 -1 0 -1 0 -1 0 0 0 -1 1 -1 0 -1 0 -1 0 0 1 -1 0 -1 0 0 1 -1 0 -1 1 0 0 -1 1 -1 0 0 1 -1 0 0 1 -1 1 0 0 0 1 -1 1 0 0 0 1 -1 1 0 1 0 0 -16 -4zm24 40l0 0 -1 0 -2 -1 -2 0 -1 -1 -2 -1 -1 -1 -1 0 -2 -1 -1 -1 -1 -1 -1 -2 -1 -1 -1 -1 -1 -1 -1 -2 -1 -1 -1 -1 -1 -2 0 -1 -1 -2 -1 -1 0 -2 0 -1 -1 -2 0 -1 0 -2 0 -2 0 -1 0 -2 0 -2 0 -1 1 -2 16 4 0 1 0 1 0 0 0 1 0 1 0 1 0 1 0 0 0 1 0 1 0 1 1 1 0 0 0 1 1 1 0 0 0 1 1 1 0 0 1 1 0 1 1 0 1 1 0 0 1 1 1 0 0 1 1 0 1 0 1 1 0 0 1 0 0 0 -4 16zm41 -24l-1 1 0 2 -1 2 -1 1 0 2 -1 1 -1 1 -1 2 -1 1 -1 1 -1 1 -1 2 -2 1 -1 1 -1 0 -2 1 -1 1 -1 1 -2 1 -1 0 -2 1 -1 0 -2 0 -1 1 -2 0 -2 0 -1 0 -2 0 -2 0 -1 0 -2 0 -2 -1 4 -16 1 0 1 0 1 0 1 1 0 0 1 -1 1 0 1 0 1 0 0 0 1 0 1 -1 1 0 0 0 1 -1 1 0 1 0 0 -1 1 0 0 -1 1 0 1 -1 0 -1 1 0 0 -1 1 -1 0 0 0 -1 1 -1 0 -1 0 0 0 -1 17 4zm88 30l-100 -25 4 -16 100 25 5 4 -9 12zm4 -16l3 1 2 3 -5 -4zm26 80l-36 -68 15 -8 36 68 -15 8z"/>
        </g>
       </g>
       <g>
        <path class="fil6" d="M4166 463l0 0 -1 0 -2 -1 -1 -1 -2 0 -1 -1 -2 -1 -1 -1 -1 -1 -1 -1 -1 -1 -2 -2 -1 -1 -1 -1 0 -1 -1 -2 -1 -1 -1 -2 0 -1 -1 -2 0 -1 -1 -2 0 -1 0 -2 -1 -1 0 -2 0 -2 0 -1 0 -2 1 -2 0 -1 0 -2 1 -2 16 5 -1 1 0 1 0 1 0 1 0 1 0 0 0 1 0 1 0 1 0 1 0 0 1 1 0 1 0 1 0 0 1 1 0 1 1 1 0 0 0 1 1 0 1 1 0 1 1 0 0 1 1 0 1 1 0 0 1 0 1 1 1 0 0 0 0 0 -5 16zm42 -21l0 0 0 1 -1 2 -1 1 0 2 -1 1 -1 2 -1 1 -1 1 -1 1 -1 1 -2 2 -1 1 -1 1 -1 0 -2 1 -1 1 -2 1 -1 0 -2 1 -1 0 -2 1 -1 0 -2 0 -1 1 -2 0 -2 0 -1 0 -2 0 -2 -1 -1 0 -2 0 -2 -1 5 -16 1 1 1 0 1 0 1 0 1 0 0 0 1 0 1 0 1 0 1 0 0 0 1 -1 1 0 1 0 0 0 1 -1 1 0 1 -1 0 0 1 -1 0 0 1 -1 1 0 0 -1 1 0 0 -1 1 -1 0 0 0 -1 1 -1 0 -1 0 -1 0 0 16 6zm-21 -42l0 0 1 0 2 1 1 1 2 0 1 1 2 1 1 1 1 1 1 1 1 1 2 1 1 2 1 1 0 1 1 2 1 1 1 2 0 1 1 1 0 2 1 2 0 1 0 2 1 1 0 2 0 2 0 1 0 2 -1 2 0 1 0 2 -1 2 -16 -6 1 0 0 -1 0 -1 0 -1 0 -1 0 0 0 -1 0 -1 0 -1 0 -1 0 0 -1 -1 0 -1 0 -1 0 0 -1 -1 0 -1 -1 -1 0 0 0 -1 -1 -1 -1 0 0 -1 -1 0 0 -1 -1 0 -1 -1 0 0 -1 0 -1 -1 -1 0 0 0 0 0 5 -16zm-42 21l0 -1 1 -2 1 -1 0 -2 1 -1 1 -2 1 -1 1 -1 1 -1 1 -2 2 -1 1 -1 1 -1 1 -1 2 0 1 -1 2 -1 1 0 2 -1 1 0 2 -1 1 0 2 -1 1 0 2 0 2 0 1 0 2 0 2 1 1 0 2 0 2 1 -5 16 -1 -1 -1 0 -1 0 -1 0 -1 0 0 0 -1 0 -1 0 -1 0 -1 0 0 0 -1 0 -1 1 -1 0 0 0 -1 1 -1 0 -1 0 0 1 -1 0 0 1 -1 0 -1 1 0 1 -1 0 0 1 -1 1 0 0 0 1 -1 1 0 1 0 0 -16 -5zm-87 -36l99 32 -5 15 -99 -31 -5 -4 10 -12zm-5 16l-3 -1 -2 -3 5 4zm-22 -82l32 71 -15 7 -32 -71 15 -7z"/>
       </g>
       <g>
        <path class="fil6" d="M4335 614l0 0 -2 0 -1 -1 -2 -1 -1 0 -2 -1 -1 -1 -1 -1 -2 -1 -1 -1 -1 -1 -1 -1 -1 -2 -1 -1 -1 -1 -1 -2 -1 -1 0 -1 -1 -2 -1 -1 0 -2 0 -2 -1 -1 0 -2 0 -1 0 -2 0 -2 0 -1 0 -2 0 -2 0 -1 1 -2 0 -1 16 5 0 0 0 1 -1 1 0 1 0 1 0 1 0 0 0 1 0 1 1 1 0 1 0 0 0 1 0 1 1 1 0 0 1 1 0 1 0 0 1 1 0 1 1 0 1 1 0 0 1 1 0 0 1 1 1 0 1 1 0 0 1 0 1 0 0 0 -5 16zm42 -21l0 0 -1 1 -1 2 0 1 -1 2 -1 1 -1 2 -1 1 -1 1 -1 1 -1 2 -1 1 -1 1 -2 1 -1 1 -1 0 -2 1 -1 1 -2 1 -1 0 -2 1 -1 0 -2 0 -1 1 -2 0 -2 0 -1 0 -2 0 -2 0 -1 0 -2 -1 -2 0 -1 -1 5 -16 1 1 1 0 0 0 1 0 1 0 1 0 1 0 0 0 1 0 1 0 1 0 1 0 0 -1 1 0 1 0 1 -1 0 0 1 0 1 -1 0 0 1 -1 0 0 1 -1 1 -1 0 0 1 -1 0 -1 0 0 1 -1 0 -1 1 -1 0 0 0 0 16 5zm-22 -42l0 0 2 0 1 1 2 1 1 1 2 0 1 1 1 1 2 1 1 1 1 1 1 2 1 1 1 1 1 2 1 1 0 1 1 2 1 1 0 2 1 1 0 2 1 1 0 2 0 2 0 1 0 2 0 1 0 2 0 2 0 1 -1 2 0 2 -16 -5 0 -1 0 -1 0 -1 0 -1 1 0 0 -1 0 -1 0 -1 -1 -1 0 -1 0 0 0 -1 0 -1 -1 -1 0 0 0 -1 -1 -1 0 0 -1 -1 0 -1 -1 0 0 -1 -1 -1 0 0 -1 -1 -1 0 0 -1 -1 0 -1 0 0 -1 -1 0 -1 0 0 0 5 -16zm-42 22l1 -2 0 -2 1 -1 1 -2 1 -1 1 -1 1 -2 1 -1 1 -1 1 -1 1 -1 1 -1 2 -1 1 -1 1 -1 2 -1 1 -1 1 0 2 -1 2 0 1 -1 2 0 1 0 2 -1 1 0 2 0 2 0 1 0 2 1 2 0 1 0 2 1 -5 16 -1 -1 -1 0 -1 0 0 0 -1 0 -1 0 -1 0 -1 0 0 0 -1 0 -1 0 -1 1 -1 0 0 0 -1 0 -1 1 0 0 -1 1 -1 0 0 1 -1 0 -1 1 0 0 -1 1 0 0 -1 1 0 1 -1 0 0 1 0 1 -1 1 0 1 -16 -5zm-314 -109l326 104 -5 16 -326 -104 5 -16z"/>
       </g>
       <g>
        <path class="fil6" d="M4207 507l0 0 -2 0 -1 -1 -2 -1 -1 0 -2 -1 -1 -1 -1 -1 -2 -1 -1 -1 -1 -1 -1 -1 -1 -2 -1 -1 -1 -1 -1 -2 -1 -1 0 -2 -1 -1 -1 -1 0 -2 0 -2 -1 -1 0 -2 0 -1 0 -2 0 -2 0 -1 0 -2 0 -2 0 -1 1 -2 0 -2 16 6 0 0 0 1 -1 1 0 1 0 1 0 0 0 1 0 1 0 1 1 1 0 0 0 1 0 1 0 1 1 1 0 0 1 1 0 1 0 0 1 1 0 1 1 0 1 1 0 0 1 1 0 0 1 1 1 0 1 1 0 0 1 0 1 0 0 0 -5 16zm42 -21l0 0 -1 1 0 2 -1 1 -1 2 -1 1 -1 2 -1 1 -1 1 -1 1 -1 2 -1 1 -1 1 -2 1 -1 1 -1 0 -2 1 -1 1 -2 0 -1 1 -2 1 -1 0 -2 0 -1 1 -2 0 -2 0 -1 0 -2 0 -2 0 -1 -1 -2 0 -1 0 -2 -1 5 -16 1 1 1 0 0 0 1 0 1 0 1 0 1 0 0 0 1 0 1 0 1 0 1 0 0 -1 1 0 1 0 1 -1 0 0 1 0 1 -1 0 0 1 -1 1 0 0 -1 1 -1 0 0 1 -1 0 -1 0 0 1 -1 0 -1 1 -1 0 0 0 0 16 5zm-22 -42l0 0 2 0 1 1 2 1 1 0 2 1 1 1 1 1 2 1 1 1 1 1 1 2 1 1 1 1 1 1 1 2 1 1 0 2 1 1 0 2 1 1 0 2 1 1 0 2 0 1 0 2 0 2 0 1 0 2 0 2 0 1 -1 2 0 2 -16 -5 0 -1 0 -1 0 -1 1 -1 0 -1 0 0 0 -1 0 -1 -1 -1 0 -1 0 0 0 -1 0 -1 -1 -1 0 0 0 -1 -1 -1 0 0 -1 -1 0 -1 -1 0 0 -1 -1 -1 0 0 -1 -1 -1 0 0 -1 -1 0 -1 0 0 -1 -1 0 -1 0 0 0 5 -16zm-42 21l1 -1 0 -2 1 -1 1 -2 1 -1 1 -1 1 -2 1 -1 1 -1 1 -1 1 -2 1 -1 2 -1 1 0 1 -1 2 -1 1 -1 2 0 1 -1 2 0 1 -1 2 0 1 0 2 -1 2 0 1 0 2 0 1 0 2 1 2 0 1 0 2 1 -5 16 -1 -1 -1 0 0 0 -1 0 -1 0 -1 0 -1 0 -1 0 0 0 -1 0 -1 0 -1 1 0 0 -1 0 -1 0 -1 1 0 0 -1 1 -1 0 0 1 -1 0 -1 1 0 0 -1 1 0 0 -1 1 0 1 -1 0 0 1 0 1 -1 1 0 1 -16 -6zm-314 -108l327 104 -6 16 -326 -104 5 -16z"/>
       </g>
       <g>
        <path class="fil6" d="M4398 603l0 0 -1 -1 -2 0 -1 -1 -2 -1 -1 -1 -1 0 -2 -1 -1 -1 -1 -2 -1 -1 -2 -1 -1 -1 -1 -1 0 -2 -1 -1 -1 -1 -1 -2 0 -1 -1 -2 0 -1 -1 -2 0 -1 0 -2 -1 -2 0 -1 0 -2 0 -2 0 -1 1 -2 0 -2 0 -1 1 -2 16 5 -1 1 0 1 0 1 0 0 0 1 0 1 0 1 0 1 0 1 0 0 0 1 1 1 0 1 0 0 0 1 1 1 0 1 1 0 0 1 1 1 0 0 1 1 0 0 1 1 0 0 1 1 1 0 0 1 1 0 1 0 1 1 1 0 0 0 -6 16zm42 -22l0 0 0 2 -1 1 -1 2 0 1 -1 2 -1 1 -1 2 -1 1 -1 1 -1 1 -2 1 -1 1 -1 1 -1 1 -2 1 -1 1 -2 0 -1 1 -2 1 -1 0 -2 1 -1 0 -2 0 -1 0 -2 0 -2 0 -1 0 -2 0 -2 0 -1 0 -2 -1 -2 0 6 -16 0 0 1 0 1 1 1 0 1 0 0 0 1 0 1 0 1 0 1 0 0 -1 1 0 1 0 1 0 0 -1 1 0 1 0 1 -1 0 0 1 -1 1 0 0 -1 1 0 0 -1 1 -1 0 0 1 -1 0 -1 0 0 1 -1 0 -1 0 -1 0 0 16 5zm-21 -42l0 0 1 1 2 1 1 0 2 1 1 1 2 1 1 1 1 1 1 1 1 1 2 1 1 1 1 2 0 1 1 1 1 2 1 1 0 2 1 1 0 2 1 1 0 2 1 1 0 2 0 2 0 1 0 2 0 2 -1 1 0 2 0 2 -1 1 -16 -5 1 -1 0 0 0 -1 0 -1 0 -1 0 -1 0 -1 0 0 0 -1 0 -1 0 -1 -1 -1 0 0 0 -1 0 -1 -1 -1 0 0 -1 -1 0 -1 0 0 -1 -1 -1 0 0 -1 -1 -1 0 0 -1 -1 -1 0 0 0 -1 -1 -1 0 -1 0 0 -1 0 0 5 -16zm-42 22l0 -1 1 -2 1 -2 0 -1 1 -1 1 -2 1 -1 1 -1 1 -2 1 -1 2 -1 1 -1 1 -1 1 -1 2 -1 1 0 2 -1 1 -1 2 0 1 -1 2 0 1 -1 2 0 1 0 2 0 2 0 1 0 2 0 2 0 1 1 2 0 2 0 -5 16 -1 0 -1 0 -1 0 -1 0 -1 0 0 0 -1 0 -1 0 -1 0 -1 0 0 0 -1 0 -1 0 -1 1 0 0 -1 0 -1 1 -1 0 0 1 -1 0 0 1 -1 0 -1 1 0 0 -1 1 0 1 -1 0 0 1 0 1 -1 1 0 0 0 1 -16 -5zm-259 -90l271 85 -5 16 -271 -85 -5 -4 10 -12zm-5 16l-3 -1 -2 -3 5 4zm-12 -52l22 40 -15 8 -21 -40 14 -8z"/>
       </g>
       <g>
        <path class="fil6" d="M4243 391l0 0 2 1 2 0 1 1 2 1 1 1 1 1 2 1 1 1 1 1 1 1 1 1 2 1 0 2 1 1 1 1 1 2 1 1 0 1 1 2 0 2 1 1 0 2 0 1 1 2 0 1 0 2 0 2 0 1 -1 2 0 2 0 1 -1 2 -16 -5 1 -1 0 -1 0 0 0 -1 0 -1 0 -1 0 -1 0 -1 0 0 0 -1 0 -1 -1 -1 0 -1 0 0 0 -1 -1 -1 0 0 -1 -1 0 -1 -1 0 0 -1 -1 -1 0 0 -1 -1 0 0 -1 -1 -1 0 0 -1 -1 0 -1 0 -1 -1 -1 0 0 0 5 -16zm-41 22l0 0 0 -2 1 -1 1 -2 0 -1 1 -2 1 -1 1 -1 1 -2 1 -1 1 -1 1 -1 2 -1 1 -1 1 -1 2 -1 1 -1 2 0 1 -1 1 -1 2 0 2 0 1 -1 2 0 1 0 2 0 2 0 1 0 2 0 2 0 1 0 2 1 1 0 -5 16 0 0 -1 0 -1 -1 -1 0 -1 0 0 0 -1 0 -1 0 -1 0 -1 1 0 0 -1 0 -1 0 -1 1 -1 0 0 0 -1 1 -1 0 0 0 -1 1 -1 0 0 1 -1 1 0 0 -1 1 0 0 -1 1 0 1 -1 1 0 0 0 1 0 1 0 0 -16 -5zm21 42l0 0 -1 -1 -2 0 -1 -1 -2 -1 -1 -1 -2 -1 -1 -1 -1 -1 -1 -1 -2 -1 -1 -1 -1 -1 -1 -2 -1 -1 0 -1 -1 -2 -1 -1 0 -2 -1 -1 -1 -2 0 -1 0 -2 -1 -1 0 -2 0 -2 0 -1 0 -2 0 -1 0 -2 1 -2 0 -1 1 -2 16 5 -1 1 0 1 0 0 0 1 0 1 0 1 0 1 0 1 0 0 0 1 0 1 0 1 1 0 0 1 0 1 1 1 0 0 0 1 1 1 0 0 1 1 0 1 1 0 1 1 0 0 1 1 1 0 0 1 1 0 1 0 1 1 0 0 0 0 -5 16zm42 -22l0 2 -1 1 -1 2 0 1 -1 2 -1 1 -1 1 -1 2 -1 1 -1 1 -2 1 -1 1 -1 1 -1 1 -2 1 -1 1 -2 0 -1 1 -2 0 -1 1 -2 0 -1 1 -2 0 -1 0 -2 0 -2 0 -1 0 -2 0 -2 0 -1 0 -2 -1 -2 0 5 -16 1 0 1 0 1 0 1 1 1 0 0 0 1 0 1 0 1 -1 1 0 0 0 1 0 1 0 1 -1 0 0 1 0 1 -1 0 0 1 -1 1 0 0 -1 1 0 1 -1 0 0 1 -1 0 -1 1 0 0 -1 0 -1 1 0 0 -1 0 -1 16 5zm87 36l-99 -31 5 -16 99 31 5 5 -10 11zm5 -16l3 1 2 4 -5 -5zm22 82l-32 -70 15 -7 32 70 -15 7z"/>
       </g>
      </g>
     </g>
     <path class="fil4" d="M4055 632c64,25 129,50 193,76l7 2 -1 1c7,2 14,14 20,33 13,27 66,50 104,65 32,13 65,-7 78,-42 1,-4 -1,-12 -7,-15 -55,-42 -115,-62 -180,-59 -5,-2 -9,-4 -14,-5 -61,-24 -123,-48 -184,-73l-16 17z"/>
    </g>
   </g>
  </g>
  <path class="fil7" d="M1512 1167l-9 45 -141 0c-1,0 -3,0 -4,1 -1,1 -2,2 -2,4l-18 89c0,2 0,4 1,5 2,2 3,3 5,3l81 0c2,0 3,-1 4,-2 1,-1 2,-2 3,-4l5 -26 -24 0c-3,0 -6,-1 -8,-2 -3,-1 -5,-3 -7,-5 -1,-2 -2,-5 -3,-8 -1,-2 -1,-5 0,-8l3 -15 104 0 -15 73c-1,6 -3,12 -6,17 -3,5 -7,9 -11,13 -5,3 -10,6 -15,8 -6,2 -12,3 -18,3l-132 0c-5,0 -9,-1 -13,-3 -4,-1 -7,-4 -9,-7 -3,-3 -5,-7 -6,-11 -1,-4 -1,-8 0,-12l26 -132c2,-8 6,-14 11,-19 6,-4 13,-7 21,-7l177 0zm206 0c5,0 10,1 14,3 4,2 8,5 11,9 2,3 5,7 6,12 1,4 1,9 0,14l-25 127c-2,8 -5,14 -11,19 -6,5 -13,7 -21,7l-138 0c-5,0 -10,-1 -14,-3 -4,-2 -8,-5 -11,-8 -3,-4 -5,-8 -6,-13 -1,-4 -1,-9 -1,-14l26 -127c2,-8 5,-14 11,-19 6,-4 13,-7 20,-7l139 0zm-134 144c1,2 3,3 5,3l76 0c3,0 5,-2 6,-6l18 -89c0,-2 0,-3 -1,-5 -2,-2 -3,-2 -5,-2l-76 0c-2,0 -3,0 -4,1 -1,1 -2,2 -3,4l-17 89c-1,2 0,4 1,5zm246 -144l29 147 73 -147 66 0 -98 191 -96 0 -35 -191 61 0zm338 118l-101 0 -6 29 121 0 -9 44 -178 0 38 -191 178 0 -9 45 -121 0 -6 28 102 0 -9 45zm184 19l-70 0 -10 54 -58 0 38 -191 184 0c5,0 10,1 14,3 5,2 8,5 11,9 3,3 5,7 6,12 1,4 2,9 1,14l-15 73c-2,8 -5,14 -11,19 -6,5 -13,7 -20,7l-12 0 24 54 -57 0 -25 -54zm46 -46c1,-1 2,-2 3,-4l6 -35c1,-2 0,-3 -1,-5 -1,-2 -3,-2 -5,-2l-100 0 -10 47 103 0c2,0 3,0 4,-1zm328 -91l-38 191 -99 0 -30 -151 -30 151 -57 0 38 -191 98 0 31 151 30 -151 57 0zm190 191l-54 0 -35 -153 -32 153 -59 0 38 -191 104 0 20 118 59 -118 110 0 -38 191 -59 0 29 -153 -83 153zm335 -73l-102 0 -6 29 121 0 -9 44 -178 0 38 -191 178 0 -8 45 -121 0 -6 28 102 0 -9 45zm300 -118l-38 191 -98 0 -31 -151 -30 151 -57 0 38 -191 99 0 30 151 30 -151 57 0zm20 45l9 -45 195 0 -9 45 -64 0 -29 146 -64 0 29 -146 -67 0zm583 104l3 -15 58 0 -2 5c0,2 1,4 2,5 1,2 3,3 5,3l68 0c2,0 3,-1 4,-2 1,-1 2,-2 2,-4l4 -19c1,-2 0,-3 -1,-5 -1,-1 -3,-2 -5,-2l-88 0c-6,0 -11,-1 -16,-4 -4,-2 -8,-5 -11,-9 -3,-4 -6,-8 -7,-13 -1,-6 -2,-11 0,-16l8 -45c2,-8 6,-15 12,-20 7,-5 14,-8 23,-8l126 0c5,0 10,1 15,4 5,2 9,5 12,9 3,4 5,8 6,13 2,5 2,10 1,16l-3 15 -58 0 2 -5c0,-2 -1,-3 -2,-5 -1,-2 -3,-2 -5,-2l-70 0c-3,0 -5,1 -6,5l-3 16c0,2 0,3 2,5 1,2 2,2 4,2l73 0c5,0 10,0 13,0l5 1c6,0 10,1 15,4 4,2 7,5 10,9 3,4 5,8 7,13 1,5 1,10 0,15l-10 48c-1,8 -5,15 -12,20 -6,5 -14,8 -22,8l-125 0c-5,0 -10,-1 -15,-3 -5,-3 -9,-6 -12,-10 -3,-4 -5,-8 -6,-13 -2,-5 -2,-10 -1,-16zm426 -149c5,0 9,1 14,3 4,2 7,5 10,9 3,3 5,7 7,12 1,4 1,9 0,14l-25 127c-2,8 -6,14 -12,19 -5,5 -12,7 -20,7l-138 0c-5,0 -10,-1 -14,-3 -5,-2 -8,-5 -11,-8 -3,-4 -5,-8 -6,-13 -1,-4 -2,-9 -1,-14l26 -127c1,-8 5,-14 11,-19 6,-4 12,-7 20,-7l139 0zm-134 144c1,2 3,3 5,3l76 0c3,0 5,-2 6,-6l18 -89c0,-2 0,-3 -1,-5 -2,-2 -3,-2 -5,-2l-76 0c-2,0 -3,0 -4,1 -2,1 -2,2 -3,4l-17 89c-1,2 0,4 1,5zm214 -144l63 0 -29 147 118 0 -9 44 -181 0 38 -191zm233 139c-1,2 0,4 1,5 1,2 3,3 5,3l70 0c1,0 2,-1 3,-2 2,-1 2,-2 3,-4l28 -141 57 0 -33 165c-1,8 -5,14 -11,19 -6,5 -12,7 -20,7l-132 0c-5,0 -10,-1 -14,-3 -5,-2 -8,-5 -11,-8 -3,-4 -5,-8 -6,-13 -1,-4 -1,-9 -1,-14l31 -153 57 0 -27 139zm187 -94l9 -45 195 0 -9 45 -64 0 -29 146 -64 0 29 -146 -67 0zm204 146l38 -191 57 0 -38 191 -57 0zm301 -191c5,0 10,1 14,3 4,2 8,5 11,9 3,3 5,7 6,12 1,4 2,9 0,14l-25 127c-1,8 -5,14 -11,19 -6,5 -13,7 -20,7l-139 0c-5,0 -10,-1 -14,-3 -4,-2 -8,-5 -11,-8 -2,-4 -4,-8 -6,-13 -1,-4 -1,-9 0,-14l25 -127c2,-8 5,-14 11,-19 6,-4 13,-7 20,-7l139 0zm-134 144c2,2 3,3 5,3l76 0c4,0 6,-2 7,-6l17 -89c1,-2 0,-3 -1,-5 -1,-2 -3,-2 -5,-2l-76 0c-1,0 -3,0 -4,1 -1,1 -2,2 -2,4l-18 89c0,2 0,4 1,5zm431 -144l-39 191 -98 0 -30 -151 -31 151 -57 0 38 -191 99 0 30 151 30 -151 58 0zm11 149l3 -15 57 0 -1 5c-1,2 0,4 1,5 1,2 3,3 5,3l68 0c2,0 3,-1 4,-2 2,-1 2,-2 3,-4l4 -19c0,-2 -1,-3 -2,-5 -1,-1 -3,-2 -5,-2l-88 0c-6,0 -11,-1 -15,-4 -5,-2 -9,-5 -12,-9 -3,-4 -5,-8 -7,-13 -1,-6 -1,-11 0,-16l9 -45c1,-8 5,-15 12,-20 6,-5 14,-8 22,-8l126 0c5,0 10,1 15,4 5,2 9,5 12,9 3,4 5,8 7,13 1,5 1,10 0,16l-3 15 -57 0 1 -5c0,-2 0,-3 -2,-5 -1,-2 -2,-2 -4,-2l-70 0c-4,0 -6,1 -7,5l-3 16c0,2 1,3 2,5 1,2 3,2 5,2l72 0c5,0 10,0 13,0l6 1c5,0 10,1 14,4 4,2 8,5 11,9 3,4 5,8 6,13 1,5 1,10 0,15l-9 48c-2,8 -6,15 -13,20 -6,5 -13,8 -22,8l-124 0c-6,0 -11,-1 -16,-3 -4,-3 -8,-6 -11,-10 -3,-4 -6,-8 -7,-13 -1,-5 -2,-10 0,-16z"/>
  <g>
   <path class="fil7" d="M8392 292l-13 62 -197 0c-2,0 -3,1 -5,2 -2,1 -3,3 -3,5l-25 125c-1,2 0,5 2,7 2,2 4,3 7,3l113 0c2,0 4,0 5,-2 2,-1 3,-3 3,-5l8 -37 -33 0c-4,0 -8,-1 -12,-3 -3,-2 -6,-4 -9,-7 -2,-3 -4,-6 -5,-10 -1,-4 -1,-8 0,-12l4 -22 145 0 -20 103c-2,9 -5,16 -9,23 -4,7 -9,13 -16,18 -6,5 -13,9 -20,12 -8,3 -16,4 -25,4l-185 0c-6,0 -12,-1 -17,-3 -5,-3 -10,-6 -13,-11 -4,-4 -6,-9 -8,-15 -1,-6 -2,-11 0,-17l37 -184c2,-11 7,-20 15,-26 8,-7 17,-10 28,-10l248 0z"/>
   <path class="fil7" d="M8034 799l5 -21 80 0 -2 7c-1,3 0,5 2,8 2,2 4,3 7,3l95 0c2,0 4,-1 6,-2 1,-2 3,-3 3,-5l5 -27c1,-3 0,-5 -2,-8 -1,-2 -4,-3 -6,-3l-124 0c-7,0 -14,-1 -21,-5 -7,-3 -12,-7 -16,-13 -5,-5 -8,-11 -10,-18 -2,-7 -2,-15 0,-22l12 -62c2,-12 8,-21 17,-29 9,-7 19,-11 31,-11l176 0c7,0 14,2 21,5 7,4 12,8 16,13 5,6 8,12 10,19 2,7 2,14 1,22l-5 21 -80 0 2 -7c0,-3 0,-5 -2,-7 -2,-3 -4,-4 -7,-4l-98 0c-4,0 -7,3 -8,8l-4 22c-1,2 0,5 1,7 2,2 4,3 7,3l101 0c8,0 14,0 19,0l7 1c7,0 14,2 20,6 6,3 11,7 15,13 4,5 7,11 9,18 2,7 2,14 0,21l-13 67c-2,11 -8,20 -17,28 -9,7 -19,11 -31,11l-174 0c-8,0 -15,-2 -21,-5 -7,-3 -12,-8 -17,-13 -4,-5 -7,-12 -9,-19 -2,-7 -2,-14 -1,-22z"/>
  </g>
 </g>
</svg>
